<?xml version="1.0" standalone="no"?>
<!DOCTYPE svg PUBLIC "-//W3C//DTD SVG 20010904//EN"
 "http://www.w3.org/TR/2001/REC-SVG-20010904/DTD/svg10.dtd">
<svg version="1.0" xmlns="http://www.w3.org/2000/svg"
 width="1694.000000pt" height="1214.000000pt" viewBox="0 0 1694.000000 1214.000000"
 preserveAspectRatio="xMidYMid meet">

<g transform="translate(0.000000,1214.000000) scale(0.100000,-0.100000)"
fill="#000000" stroke="none">
<path d="M10905 9937 c-177 -73 -926 -508 -1179 -684 -159 -111 -225 -126
-657 -148 -401 -20 -654 -50 -953 -115 -909 -196 -1852 -665 -3041 -1516 -137
-98 -371 -270 -520 -382 -148 -113 -316 -239 -372 -281 -56 -42 -102 -81 -103
-88 -1 -27 89 -52 295 -83 247 -38 325 -63 325 -105 0 -60 -129 -270 -312
-506 -222 -288 -388 -471 -765 -847 -206 -206 -373 -375 -371 -376 2 -1 30
-23 63 -47 133 -100 218 -134 503 -204 117 -29 216 -55 219 -59 10 -10 -36
-264 -68 -376 -110 -384 -412 -853 -845 -1314 -407 -433 -405 -430 -382 -439
57 -21 343 -87 422 -98 160 -21 282 5 425 89 201 120 492 478 759 936 206 352
335 665 639 1556 328 960 518 1362 858 1815 277 368 809 875 1180 1124 414
278 1369 683 1419 602 8 -13 -157 -122 -484 -320 -396 -240 -546 -338 -725
-471 -245 -183 -415 -330 -630 -545 -357 -357 -606 -690 -833 -1118 -219 -415
-304 -688 -488 -1574 -158 -763 -210 -903 -739 -1976 -181 -368 -288 -594
-281 -598 17 -10 443 -112 770 -184 320 -71 936 -223 1441 -355 795 -209 1153
-309 2282 -641 205 -60 378 -109 384 -109 49 0 -74 247 -465 935 -423 743
-660 1223 -760 1542 -39 126 -87 368 -93 473 -5 81 -3 97 11 109 32 27 90 -56
261 -379 236 -444 1234 -2192 1503 -2635 186 -305 242 -380 279 -373 17 3 18
20 16 333 -2 182 -16 654 -33 1050 -37 892 -50 1303 -50 1648 l0 268 -202 217
c-406 437 -642 749 -831 1097 -157 289 -248 603 -223 770 18 120 77 53 275
-315 137 -253 297 -477 491 -689 237 -257 474 -442 683 -533 186 -80 547 -181
1002 -278 881 -188 1064 -283 1386 -721 464 -630 595 -793 747 -927 139 -122
243 -172 362 -173 165 -2 327 87 510 278 317 329 618 837 645 1088 6 50 3 71
-18 125 -46 122 -130 275 -372 680 -543 908 -950 1621 -1360 2385 -299 556
-446 778 -820 1235 -285 348 -319 415 -318 625 0 108 4 132 37 244 40 136 103
303 251 661 155 374 276 712 262 727 -22 21 -221 -74 -438 -209 -147 -92 -186
-120 -359 -256 -130 -103 -184 -133 -250 -140 -41 -4 -50 -1 -76 26 -44 44
-55 95 -69 317 -6 111 -17 210 -24 222 -28 53 -84 56 -196 10z m957 -3143
c102 -33 177 -84 266 -178 151 -160 252 -319 252 -400 0 -39 -3 -45 -29 -56
-39 -16 -91 -7 -221 40 -285 101 -590 270 -642 355 -26 43 -23 108 7 164 60
110 186 135 367 75z"/>
</g>
</svg>
